<?xml version="1.0" standalone="no"?>
<!DOCTYPE svg PUBLIC "-//W3C//DTD SVG 20010904//EN"
 "http://www.w3.org/TR/2001/REC-SVG-20010904/DTD/svg10.dtd">
<svg version="1.0" xmlns="http://www.w3.org/2000/svg"
 width="300.000000pt" height="300.000000pt" viewBox="0 0 300.000000 300.000000"
 preserveAspectRatio="xMidYMid meet">
<metadata>
Created by potrace 1.14, written by Peter Selinger 2001-2017
</metadata>
<g transform="translate(0.000000,300.000000) scale(0.100000,-0.100000)"
fill="#000000" stroke="none">
<path d="M0 1500 l0 -1500 1500 0 1500 0 0 1500 0 1500 -1500 0 -1500 0 0
-1500z m1769 1471 c9 -6 -10 -13 -57 -21 -39 -6 -101 -26 -139 -44 l-68 -33
43 -12 c23 -6 42 -16 42 -22 0 -6 -7 -6 -19 1 -28 15 -33 13 -21 -10 14 -25
56 -54 69 -46 6 4 3 18 -7 35 -13 23 -14 32 -4 43 17 21 95 45 99 31 3 -7 33
-9 92 -5 91 5 185 -4 177 -17 -3 -4 10 -5 27 -3 18 2 43 -1 57 -6 24 -9 24 -9
-15 -30 -35 -18 -37 -21 -20 -27 127 -43 203 -98 268 -192 38 -56 48 -85 23
-64 -11 9 -15 9 -18 -1 -3 -8 -12 1 -22 20 -32 62 -185 192 -225 192 -14 0
-14 -2 -1 -11 13 -9 12 -10 -2 -5 -10 3 -18 1 -18 -4 0 -5 -16 -2 -35 6 -19 7
-57 14 -86 14 -45 0 -55 -4 -86 -35 -31 -31 -35 -40 -30 -70 3 -19 20 -56 39
-82 18 -26 31 -50 29 -52 -3 -5 21 -21 32 -21 5 0 6 4 2 10 -9 15 38 80 58 80
10 0 36 -9 58 -21 23 -11 47 -18 55 -15 22 8 26 -11 9 -44 -18 -35 -5 -40 26
-9 15 15 19 28 14 46 -4 16 -2 22 5 18 5 -3 10 -21 10 -40 0 -29 -4 -35 -42
-50 l-42 -16 30 -19 c34 -23 63 -35 124 -51 25 -6 39 -14 32 -16 -6 -3 -9 -10
-5 -16 4 -6 0 -8 -10 -4 -12 4 -14 2 -10 -11 9 -23 63 -78 63 -63 0 6 4 11 10
11 5 0 9 -3 9 -7 -3 -21 2 -33 16 -33 8 0 15 -5 15 -11 0 -6 15 -8 44 -4 61
10 70 -9 23 -49 -38 -32 -48 -50 -22 -40 9 4 15 0 15 -10 0 -9 -6 -16 -12 -16
-7 -1 5 -9 27 -19 48 -22 93 -36 83 -26 -3 3 2 38 13 76 10 38 19 80 19 93 0
34 -26 93 -45 100 -9 3 -14 10 -10 15 3 5 1 12 -5 16 -6 4 -10 -13 -10 -44 0
-34 4 -51 13 -51 9 0 9 -2 -1 -8 -7 -5 -10 -17 -7 -28 6 -18 6 -18 -6 1 -16
26 -17 232 -2 260 10 17 11 12 8 -27 -2 -27 0 -48 6 -48 5 0 9 5 9 10 0 6 5
10 11 10 6 0 9 -9 6 -20 -3 -11 -2 -22 2 -24 4 -3 13 33 20 80 l13 84 -31 55
c-32 56 -26 71 15 40 19 -15 19 -15 0 -8 -20 7 -20 6 0 -28 15 -26 44 -47 118
-86 138 -72 177 -114 269 -283 50 -93 87 -274 55 -267 -8 1 -14 -11 -16 -33
-7 -90 -59 -293 -62 -240 0 11 -4 10 -17 -5 -15 -19 -15 -19 -8 5 49 168 55
210 30 230 -12 10 -15 9 -15 -4 0 -9 -14 -53 -31 -96 l-31 -80 -18 22 c-30 36
-23 11 10 -37 22 -32 26 -44 16 -48 -8 -3 -13 1 -12 11 0 9 -4 16 -11 15 -7
-2 -10 3 -7 11 3 8 0 17 -7 21 -8 6 -10 -2 -5 -31 13 -78 12 -122 -3 -116 -9
3 -12 0 -9 -9 7 -21 34 -23 42 -3 3 9 1 23 -5 31 -7 7 -9 16 -7 19 6 5 88
-120 88 -133 0 -5 -10 6 -21 24 -14 22 -26 30 -37 27 -11 -4 -13 -3 -5 3 7 5
9 14 4 22 -7 11 -10 9 -16 -8 -4 -14 1 -31 15 -51 58 -81 100 -250 80 -321 -6
-19 -10 -59 -10 -90 0 -34 -11 -87 -29 -140 -28 -82 -76 -189 -86 -189 -3 0 5
19 17 42 12 24 23 57 24 73 1 17 7 54 13 84 6 30 9 57 6 59 -3 3 -5 -2 -5 -12
0 -9 -4 -14 -10 -11 -14 9 -13 46 1 43 6 -2 14 4 16 12 4 12 3 12 -5 2 -5 -8
-12 -13 -16 -13 -3 1 -9 1 -14 1 -4 0 -22 -30 -40 -67 -38 -78 -59 -106 -86
-116 -16 -6 -17 -5 -6 8 7 9 10 18 6 22 -3 3 -6 1 -6 -5 0 -7 -4 -12 -9 -12
-12 0 -115 -63 -119 -72 -2 -5 -8 -8 -13 -8 -21 0 -6 17 44 50 63 41 127 100
127 116 0 7 7 15 16 18 8 3 12 11 9 17 -4 5 1 19 10 29 25 27 45 106 44 169
l-1 56 -9 -57 c-15 -105 -50 -150 -150 -198 -84 -39 -105 -39 -122 3 l-14 32
-7 -43 c-7 -35 -10 -40 -19 -29 -7 8 -30 20 -52 27 -50 15 -165 81 -165 94 0
5 7 17 16 27 15 17 13 17 -32 3 -55 -16 -173 -18 -227 -3 -37 10 -44 18 -73
94 -7 16 -9 13 -12 -17 -2 -21 -8 -38 -14 -38 -13 0 -134 86 -144 102 -4 6 4
19 17 30 58 45 218 148 230 148 7 0 33 -19 57 -42 25 -24 40 -34 34 -22 -6 11
-18 26 -26 33 -9 8 -13 18 -9 24 3 5 -3 16 -13 24 -13 10 -24 40 -35 101 -9
48 -30 140 -47 205 -31 119 -31 139 -3 198 8 16 2 12 -16 -11 -15 -19 -37 -44
-49 -56 -18 -19 -21 -34 -22 -132 0 -61 -5 -120 -11 -131 -10 -17 -9 -20 4
-15 8 4 15 11 15 16 0 6 11 3 25 -6 30 -20 32 -20 32 2 -1 9 1 37 2 62 2 38 4
41 11 23 23 -56 23 -118 0 -172 -36 -83 -106 -135 -349 -262 -117 -61 -200
-129 -250 -203 -85 -125 -188 -390 -225 -579 l-21 -108 -33 32 c-18 17 -44 53
-59 79 l-26 47 -39 -76 c-63 -124 -63 -124 -78 -106 -15 18 -7 37 60 142 43
69 44 61 -3 166 -13 29 -46 109 -73 179 l-49 128 -42 0 c-33 0 -43 -4 -43 -16
0 -14 -2 -15 -17 -3 -19 16 -23 16 -34 -2 -6 -10 -10 -9 -15 6 -17 46 -54 80
-149 137 -112 67 -207 140 -254 193 -123 141 -144 373 -63 710 l20 80 -5 -100
c-7 -138 17 -309 61 -437 19 -56 32 -106 29 -112 -3 -5 -1 -6 5 -3 5 4 21 -12
35 -36 37 -63 219 -227 253 -227 11 0 45 42 66 84 l20 39 -38 76 c-48 96 -56
182 -26 278 19 62 19 62 0 95 -12 18 -24 35 -29 38 -4 3 -29 50 -55 105 -42
88 -46 102 -36 128 14 37 104 177 115 177 4 0 7 -39 8 -87 l0 -88 15 55 c21
77 54 147 99 205 22 28 48 68 60 89 16 31 43 53 128 104 59 35 110 63 112 61
2 -3 -36 -39 -85 -81 -91 -80 -221 -236 -248 -298 -26 -63 -62 -222 -61 -274
0 -28 3 -44 6 -36 11 29 26 42 34 29 4 -7 9 0 14 19 3 18 4 36 1 41 -4 5 -2
12 4 16 5 3 10 14 10 23 1 9 7 31 14 47 14 30 14 29 8 -15 -2 -25 -2 -42 1
-39 4 3 8 34 10 70 3 47 13 82 37 132 17 37 36 70 41 73 13 7 12 3 -11 -44
-11 -22 -20 -48 -20 -56 0 -8 -4 -18 -10 -21 -6 -3 -10 -47 -10 -96 0 -78 4
-100 31 -165 17 -41 51 -103 76 -137 44 -61 109 -126 127 -127 24 -1 156 103
257 202 184 182 229 296 181 455 -19 63 -31 79 -120 175 -95 102 -138 168
-108 168 7 0 18 -15 26 -34 12 -31 210 -229 210 -211 0 4 -10 21 -22 38 l-22
32 25 -22 c13 -12 42 -54 63 -93 37 -70 38 -75 34 -150 -7 -122 -39 -176 -206
-345 -77 -78 -180 -173 -229 -212 l-91 -72 -5 27 c-4 16 -18 34 -36 44 -53 29
-170 210 -195 300 -6 23 -6 22 -22 -7 -14 -26 -14 -42 -4 -123 6 -51 10 -112
9 -136 -2 -26 3 -53 12 -66 15 -22 15 -22 42 19 36 54 43 53 12 -1 -24 -42
-32 -78 -17 -78 4 0 18 -17 31 -38 14 -20 34 -48 45 -61 l21 -24 -21 13 c-12
7 -32 30 -45 52 -13 21 -27 38 -31 38 -11 0 -79 117 -76 132 2 7 -2 12 -9 11
-6 -2 -21 8 -31 22 l-20 25 -13 -47 c-20 -73 -16 -161 10 -211 25 -49 42 -59
77 -44 l24 12 -44 40 c-50 46 -62 85 -49 159 l8 44 63 -101 c35 -56 67 -104
72 -107 18 -11 11 -42 -12 -57 l-23 -15 32 -7 c41 -9 54 -27 16 -21 -131 20
-133 19 -79 -61 43 -64 56 -95 113 -269 25 -77 71 -198 103 -270 32 -71 65
-148 74 -169 9 -22 18 -37 21 -34 3 2 -7 60 -22 129 -24 111 -27 145 -28 323
l0 198 171 167 c94 92 209 196 255 230 158 117 237 181 273 221 49 54 88 134
84 173 l-3 32 -24 -49 c-26 -52 -91 -122 -206 -221 -38 -33 -76 -66 -83 -72
-21 -21 -30 -15 -34 20 -5 47 19 104 74 172 63 78 62 94 -2 24 -71 -77 -104
-147 -102 -217 1 -51 -9 -82 -28 -82 -5 0 -18 16 -29 36 -17 29 -19 39 -9 51
9 11 9 16 -2 23 -10 6 -11 12 -3 22 6 7 10 27 10 45 l0 32 -46 -44 c-25 -25
-51 -45 -58 -45 -6 0 36 49 94 110 58 60 118 126 133 147 47 65 71 147 73 249
2 80 4 89 16 72 9 -14 16 -17 24 -9 6 6 21 11 34 11 29 0 43 -32 43 -97 0 -26
3 -44 6 -40 3 3 6 37 5 75 -1 65 0 70 19 65 29 -8 26 19 -7 70 -16 23 -31 47
-36 52 -59 76 -79 106 -75 110 8 8 69 -54 116 -116 35 -47 92 -157 115 -222 4
-10 12 -15 18 -11 8 5 8 9 -1 14 -7 4 -10 12 -6 18 5 9 -35 87 -83 157 -52 78
-62 103 -49 132 6 15 23 40 37 56 20 22 22 27 8 27 -9 0 -17 7 -17 14 0 13 5
13 36 0 46 -19 69 -12 60 19 -4 12 -8 43 -9 69 -2 39 -5 47 -24 51 -12 2 -20
1 -18 -4 3 -4 -1 -9 -7 -12 -9 -3 -7 -10 7 -21 11 -8 15 -16 9 -16 -21 0 -106
64 -177 135 -61 61 -79 73 -117 79 l-45 8 65 30 c95 44 272 72 309 49z m-384
-156 c15 -25 41 -58 56 -75 l28 -29 -37 -7 c-89 -15 -272 -58 -327 -76 -156
-53 -317 -150 -454 -274 -50 -45 -127 -137 -191 -228 -28 -39 -40 -45 -40 -18
0 14 -2 15 -10 2 -8 -12 -10 -12 -10 -1 0 10 -13 12 -55 9 -50 -4 -55 -3 -55
15 0 11 12 41 27 66 30 52 103 144 110 138 2 -3 6 -15 7 -28 2 -13 8 -36 14
-51 21 -51 47 -36 187 98 72 68 123 122 114 119 -21 -8 -19 23 4 55 46 66 -14
106 -77 53 -17 -15 -18 -15 -8 -1 20 26 150 112 227 150 133 67 326 125 421
127 37 1 42 -2 69 -44z m917 -100 c4 -5 8 -6 8 -1 0 9 59 -62 61 -73 0 -3 2
-17 3 -31 1 -14 6 -36 10 -50 4 -14 -11 8 -33 48 -23 41 -53 90 -69 110 -20
27 -22 33 -7 22 11 -8 23 -19 27 -25z m-669 -76 c24 -20 37 -39 37 -55 0 -22
-28 -104 -36 -104 -14 0 -54 25 -54 34 0 7 -25 42 -55 78 l-55 67 32 4 c79 10
93 7 131 -24z m511 -175 c3 -8 2 -12 -4 -9 -6 3 -10 10 -10 16 0 14 7 11 14
-7z m-888 -29 c87 -51 148 -159 148 -260 -1 -119 -46 -201 -196 -352 -80 -82
-220 -188 -238 -181 -27 9 -115 109 -139 157 -48 95 -64 170 -59 271 5 75 11
101 37 153 52 105 144 187 250 224 79 28 134 25 197 -12z m1071 13 c-3 -8 -6
-5 -6 6 -1 11 2 17 5 13 3 -3 4 -12 1 -19z m133 -297 c4 -22 4 -44 1 -49 -8
-14 -63 -2 -58 12 3 6 10 10 16 9 6 -2 11 3 11 10 0 8 4 7 11 -3 8 -11 9 -3 4
30 -7 54 5 47 15 -9z m-551 -346 c0 -5 -4 -3 -9 5 -5 8 -9 22 -9 30 0 16 17
-16 18 -35z m-681 -135 c51 -27 65 -40 88 -78 l19 -33 -35 -27 c-40 -30 -132
-114 -241 -220 l-76 -73 -7 130 c-6 116 -5 134 10 154 14 17 190 163 202 166
1 1 19 -8 40 -19z m-307 -337 c13 -16 12 -17 -3 -4 -10 7 -18 15 -18 17 0 8 8
3 21 -13z m786 -110 c0 -21 -28 -44 -109 -94 -79 -49 -125 -87 -221 -187 -65
-66 -83 -80 -89 -67 -24 41 109 227 222 310 58 42 87 53 151 54 37 1 46 -2 46
-16z m-811 -181 c-6 -6 -26 43 -25 61 0 7 7 -3 15 -22 8 -18 13 -36 10 -39z
m1270 10 c23 -59 28 -65 60 -69 16 -2 42 -10 57 -18 15 -8 34 -12 41 -9 7 3
21 -5 32 -17 l19 -22 -25 7 c-14 4 -20 4 -15 -1 14 -11 55 -97 54 -114 0 -8
-4 -6 -10 6 -8 17 -8 15 -4 -8 6 -29 -17 -81 -66 -153 -30 -44 -63 -67 -52
-36 3 9 3 14 -2 10 -4 -4 -16 -3 -27 3 -26 14 -48 -5 -48 -41 0 -21 -10 -34
-41 -56 -38 -26 -42 -27 -54 -11 -7 9 -18 45 -26 80 -11 52 -14 58 -20 37 -4
-14 -7 -45 -8 -70 -1 -33 -7 -50 -23 -64 -17 -15 -20 -15 -15 -3 4 11 2 14 -7
11 -30 -11 -140 154 -200 299 -16 37 -26 70 -24 72 8 8 72 -18 84 -33 6 -8 16
-12 22 -8 7 4 12 4 12 -1 0 -4 15 -17 33 -27 50 -30 263 -136 272 -136 21 0
-23 31 -87 60 -111 51 -206 128 -265 215 -16 23 -18 32 -9 41 11 10 82 31 126
37 8 1 18 7 22 12 4 6 36 17 70 25 104 25 107 25 124 -18z m-1707 -239 c-2
-74 -19 -83 -43 -23 -21 54 -21 134 1 155 16 16 17 14 30 -26 7 -24 12 -72 12
-106z m2311 57 c-6 -11 -13 -20 -16 -20 -2 0 0 9 6 20 6 11 13 20 16 20 2 0 0
-9 -6 -20z m-1043 -56 c76 -80 88 -112 79 -213 -7 -79 -45 -205 -55 -180 -3 8
-14 15 -24 15 -13 2 -16 -3 -12 -20 2 -11 2 -15 -1 -8 -7 16 -21 16 -27 0 -2
-7 -2 -3 0 10 2 12 -1 22 -6 22 -11 0 -41 73 -41 100 0 10 -4 21 -8 24 -5 3
-5 -18 -2 -46 6 -45 5 -49 -7 -32 -12 16 -15 17 -23 4 -5 -8 -10 -19 -10 -24
0 -4 -9 2 -21 15 l-20 24 6 -25 7 -25 -17 23 c-9 12 -13 27 -10 32 4 6 1 9 -6
8 -21 -5 -47 107 -31 132 7 11 12 24 12 30 0 5 8 18 18 28 40 43 50 61 56 104
7 45 27 66 66 67 8 1 43 -29 77 -65z m908 38 c-4 -68 -144 -277 -235 -352 -51
-42 -57 -45 -57 -26 0 8 4 13 9 10 4 -3 8 2 8 11 0 10 31 49 68 89 38 39 88
98 112 131 24 33 46 62 50 65 9 8 40 59 40 67 0 4 -19 -11 -42 -34 -46 -44
-120 -93 -140 -93 -9 0 -9 3 -1 11 8 8 8 20 1 42 -10 27 -8 33 12 49 17 14 26
16 37 7 11 -10 11 -15 -3 -30 -15 -17 -15 -19 -1 -25 17 -6 70 30 116 80 14
14 25 26 26 26 1 0 1 -13 0 -28z m-200 -82 c-3 -5 -12 -7 -20 -3 -21 7 -19 13
6 13 11 0 18 -4 14 -10z m-1847 -96 c92 -24 133 -54 181 -129 33 -52 39 -78
18 -69 -8 3 -18 -5 -25 -18 -10 -21 -11 -21 -11 -3 -1 16 -3 17 -11 5 -5 -9
-5 -19 2 -27 6 -7 8 -13 5 -13 -3 0 -26 31 -51 69 -48 71 -76 94 -159 125 -53
20 -59 31 -9 17 23 -7 34 -6 43 5 14 17 15 15 -36 43 -22 12 -31 19 -20 16 11
-4 44 -13 73 -21z m819 -81 c-3 -10 -5 -2 -5 17 0 19 2 27 5 18 2 -10 2 -26 0
-35z m-17 -80 c-11 -17 -11 -17 -6 0 3 10 7 28 7 40 2 22 2 22 6 0 2 -12 -1
-30 -7 -40z m90 -31 c0 -15 -2 -15 -10 -2 -13 20 -13 33 0 25 6 -3 10 -14 10
-23z m-103 -24 c-3 -7 -5 -2 -5 12 0 14 2 19 5 13 2 -7 2 -19 0 -25z m488 22
c-3 -5 -10 -10 -16 -10 -5 0 -9 5 -9 10 0 6 7 10 16 10 8 0 12 -4 9 -10z m5
-30 c0 -5 -5 -10 -11 -10 -5 0 -7 5 -4 10 3 6 8 10 11 10 2 0 4 -4 4 -10z
m354 -2 c-19 -34 -78 -100 -116 -129 -37 -30 -41 -31 -36 -12 3 12 1 24 -5 26
-6 2 20 24 58 48 39 25 76 53 84 62 16 20 25 22 15 5z m-974 -52 c-5 -13 -7
-26 -4 -29 3 -3 -7 -14 -22 -26 -30 -24 -44 -21 -23 5 13 16 12 16 -18 0 -30
-15 -29 -13 15 32 50 51 67 57 52 18z m-321 -62 c14 -12 -19 -1 -35 12 -18 14
-18 14 6 3 14 -6 27 -13 29 -15z m-4 -63 c22 -6 54 -12 70 -14 19 -3 12 -5
-18 -6 -57 -1 -103 17 -137 54 l-25 28 35 -25 c19 -14 53 -31 75 -37z m210 49
c-3 -5 -14 -10 -23 -9 -14 0 -13 2 3 9 27 11 27 11 20 0z m375 -52 c104 -27
327 -21 410 11 67 25 68 26 44 4 -29 -27 -30 -47 -2 -40 22 6 22 5 4 -8 -82
-61 -287 -83 -439 -46 -48 11 -98 28 -112 37 -23 15 -23 17 -9 39 8 13 11 25
7 27 -4 3 -1 3 7 0 8 -3 49 -13 90 -24z"/>
<path d="M1950 2771 c19 -4 45 -11 58 -15 12 -4 22 -3 22 2 0 13 -17 18 -70
20 -44 1 -44 0 -10 -7z"/>
<path d="M2521 2515 c-15 -59 -15 -186 0 -165 8 11 9 8 4 -14 -3 -16 -3 -41 0
-57 6 -28 7 -28 35 -14 36 18 93 8 139 -24 45 -33 87 -124 83 -186 -5 -81 -7
-93 -14 -89 -4 3 -15 -8 -24 -23 -10 -15 -36 -46 -59 -68 l-41 -40 -37 35
c-20 19 -37 40 -37 45 0 6 6 3 13 -6 7 -8 24 -23 38 -33 26 -16 28 -16 58 10
18 15 41 45 52 67 l21 40 -30 -5 -30 -4 5 52 c3 29 1 66 -5 83 -9 25 -8 31 2
31 8 0 19 6 25 14 29 35 -44 96 -115 96 -56 0 -104 -83 -104 -179 0 -43 0 -44
19 -27 24 22 36 16 50 -25 9 -27 9 -30 -4 -19 -12 10 -15 10 -15 -2 0 -9 -12
-14 -36 -15 -34 -1 -35 0 -29 28 12 53 -43 27 -59 -28 -5 -15 -3 -23 5 -23 8
0 8 -5 -2 -16 -12 -15 -11 -16 11 -9 24 7 24 7 5 -9 -24 -19 -13 -20 31 -4 47
17 75 -6 101 -79 11 -32 24 -66 28 -77 7 -17 6 -17 -15 -6 -19 10 -16 4 14
-31 l37 -44 -35 -3 c-19 -2 -45 2 -58 8 -13 6 -5 -4 17 -23 l39 -35 -26 -38
c-15 -22 -41 -69 -58 -107 -18 -37 -35 -65 -38 -63 -4 2 -8 -12 -8 -32 -1 -21
-5 -63 -9 -94 -4 -32 -5 -58 -2 -58 3 0 23 11 43 25 37 25 65 25 43 -1 -9 -11
-9 -13 2 -9 11 4 14 -7 15 -47 0 -29 3 -63 6 -74 5 -17 3 -21 -11 -17 -13 3
-20 -2 -24 -18 -8 -29 -5 -32 25 -20 48 18 88 61 94 102 7 45 15 48 37 16 11
-16 18 -19 27 -11 18 18 16 99 -3 128 -19 29 -22 40 -7 31 16 -10 11 1 -7 16
-11 10 -14 10 -9 2 10 -17 -4 -16 -28 2 -31 24 -80 18 -117 -12 -33 -28 -32
-16 2 22 15 17 57 126 63 162 1 6 15 25 32 42 l30 31 -37 -78 c-21 -42 -40
-90 -44 -105 -5 -26 -4 -27 16 -17 17 10 25 8 43 -9 36 -34 41 -24 6 15 -25
29 -29 39 -18 45 7 5 9 9 4 9 -5 0 -3 7 4 15 7 8 10 15 6 15 -13 0 34 79 59
98 16 13 25 30 25 47 0 24 -2 26 -17 14 -15 -13 -15 -12 -5 8 7 12 12 39 12
60 0 21 10 58 21 83 31 66 59 169 59 215 0 50 -25 146 -41 155 -6 5 -8 13 -4
20 5 8 4 11 -2 7 -6 -4 -21 5 -33 18 -14 15 -52 34 -91 45 -56 17 -69 25 -79
50 -14 34 -10 144 6 160 23 23 122 -31 212 -114 17 -16 32 -27 32 -22 0 7 -32
38 -81 80 -14 12 -28 28 -31 36 -7 18 -103 75 -139 84 -25 5 -28 2 -38 -39z
m63 -4 c-2 -3 -12 3 -22 13 -16 17 -16 18 5 5 12 -7 20 -15 17 -18z m101 -39
c-3 -3 -11 0 -18 7 -9 10 -8 11 6 5 10 -3 15 -9 12 -12z m-58 -558 c-3 -3 -12
-4 -19 -1 -8 3 -5 6 6 6 11 1 17 -2 13 -5z"/>
<path d="M1820 2541 c0 -5 7 -12 16 -15 14 -5 15 -4 4 9 -14 17 -20 19 -20 6z"/>
<path d="M1851 2468 c0 -28 2 -30 9 -13 12 28 12 45 0 45 -5 0 -10 -15 -9 -32z"/>
<path d="M1575 2009 c-4 -6 -5 -12 -2 -15 2 -3 7 2 10 11 7 17 1 20 -8 4z"/>
<path d="M1750 1815 c-11 -13 -10 -14 4 -9 9 3 16 10 16 15 0 13 -6 11 -20 -6z"/>
<path d="M1574 1676 c-6 -6 -51 -42 -100 -81 -118 -93 -131 -104 -178 -148
-44 -42 -33 -40 24 2 34 25 40 26 175 26 125 0 144 2 180 22 79 43 131 111
105 137 -8 8 -10 7 -5 -5 7 -18 -25 -23 -36 -6 -4 5 -14 -4 -23 -20 -35 -69
-137 -114 -220 -99 -70 13 -63 26 77 149 15 14 24 27 20 30 -4 3 -13 0 -19 -7z"/>
<path d="M1826 1505 c-21 -13 -42 -29 -46 -35 -4 -6 -10 -11 -14 -11 -3 1 -25
-8 -49 -18 -53 -25 -142 -51 -176 -52 -14 0 -20 -3 -14 -6 23 -9 -10 -30 -59
-37 -47 -7 -113 -34 -105 -43 9 -8 182 19 228 37 67 25 209 113 248 154 41 42
39 44 -13 11z m-146 -99 c0 -2 -7 -7 -16 -10 -8 -3 -12 -2 -9 4 6 10 25 14 25
6z m-75 -35 c-6 -5 -26 -12 -45 -15 -35 -7 -35 -7 -10 8 27 17 70 22 55 7z"/>
<path d="M286 1374 c-4 -15 -2 -32 5 -40 7 -9 8 -14 1 -14 -6 0 -12 6 -15 13
-2 7 -8 8 -13 3 -5 -5 -4 -11 4 -13 6 -3 10 -9 7 -13 -3 -5 0 -12 6 -16 8 -5
9 -3 4 6 -6 10 -4 12 9 7 10 -4 15 -3 11 3 -3 6 -1 10 5 10 8 0 8 6 0 21 -11
19 -10 20 9 9 27 -14 26 -9 -3 23 l-24 26 -6 -25z"/>
<path d="M1305 1350 c-11 -5 -44 -19 -72 -31 -31 -12 -50 -26 -46 -32 4 -6 0
-8 -9 -5 -8 4 -21 2 -29 -3 -11 -7 -11 -9 -1 -9 7 0 11 -4 7 -10 -9 -15 55 -3
74 13 9 9 34 20 56 26 22 6 54 20 70 32 17 12 22 19 13 15 -10 -3 -20 -1 -23
4 -7 12 -13 12 -40 0z"/>
<path d="M1150 1230 c-11 -11 -25 -20 -30 -20 -6 0 -16 -11 -22 -25 -6 -14
-15 -25 -19 -25 -4 0 -19 -18 -32 -41 -16 -26 -27 -36 -30 -27 -3 7 -6 2 -8
-12 -1 -14 -3 -30 -3 -37 -1 -6 -5 -15 -9 -19 -16 -16 8 -276 30 -320 5 -10
15 -45 22 -77 10 -47 15 -56 28 -48 16 9 65 175 55 186 -3 3 0 5 7 5 9 0 11 9
7 28 -4 17 -3 22 2 14 7 -11 11 -8 16 11 3 14 9 33 12 44 6 16 5 16 -9 -2 -22
-28 -21 -12 3 35 11 22 20 48 20 59 0 11 7 26 15 35 8 8 15 19 15 25 0 6 5 11
10 11 6 0 10 5 10 11 0 6 14 30 30 53 25 35 29 46 21 67 -5 13 -10 20 -11 14
0 -5 -5 -3 -10 5 -7 12 -13 11 -36 -10 -15 -14 -46 -51 -70 -84 -50 -66 -56
-63 -19 7 14 26 23 52 20 57 -4 6 1 7 11 3 10 -4 15 -2 11 3 -3 5 2 25 10 43
14 28 14 34 2 42 -20 13 -27 11 -49 -11z"/>
<path d="M2389 1123 c32 -82 44 -103 52 -97 22 13 8 70 -27 107 -19 20 -37 37
-39 37 -3 0 4 -21 14 -47z"/>
<path d="M2630 1128 c-19 -22 -45 -45 -57 -51 -22 -10 -33 -47 -13 -47 17 0
84 34 108 54 25 22 30 56 7 56 -9 0 -12 6 -9 15 9 22 3 18 -36 -27z m-40 -72
c0 -2 -7 -7 -16 -10 -8 -3 -12 -2 -9 4 6 10 25 14 25 6z"/>
<path d="M673 1140 c-28 -11 -28 -9 1 -59 l23 -42 11 28 c6 15 14 40 18 56 5
22 3 27 -12 26 -11 0 -29 -4 -41 -9z"/>
<path d="M2811 963 c-1 -6 -4 -20 -7 -30 -5 -17 -5 -17 6 0 6 10 9 23 6 30 -3
9 -5 9 -5 0z"/>
<path d="M1228 2024 c-13 -14 -33 -24 -48 -24 -16 0 -42 -15 -70 -40 -40 -36
-42 -40 -21 -40 13 0 30 -8 37 -17 13 -17 14 -17 7 1 -5 15 -3 18 9 14 9 -4
21 -1 27 5 9 9 14 8 21 -2 11 -18 30 -4 72 53 15 21 28 35 28 31 0 -13 23 13
26 27 1 8 -12 14 -33 15 -25 1 -40 -5 -55 -23z"/>
<path d="M841 1958 c0 -7 4 -22 9 -33 7 -16 8 -14 7 12 -1 18 -5 33 -9 33 -5
0 -8 -6 -7 -12z"/>
<path d="M1105 1593 c-39 -37 -65 -68 -58 -70 10 -4 10 -7 0 -18 -7 -7 -16
-10 -22 -7 -5 2 -4 -1 3 -9 6 -7 12 -27 12 -45 0 -39 9 -64 23 -64 32 0 225
159 211 173 -4 4 0 7 10 7 15 0 15 2 1 29 -19 37 -62 71 -89 71 -12 0 -51 -29
-91 -67z"/>
<path d="M2290 665 c-7 -9 -8 -15 -2 -15 5 0 12 7 16 15 3 8 4 15 2 15 -2 0
-9 -7 -16 -15z"/>
<path d="M2470 760 c0 -5 5 -10 11 -10 5 0 7 5 4 10 -3 6 -8 10 -11 10 -2 0
-4 -4 -4 -10z"/>
</g>
</svg>
